# xmcd CD database file
#
# Track frame offsets:
#	150
#	24862
#	37537
#	58125
#	79350
#	100362
#	121162
#	142012
#	163200
#	186862
#	207987
#	237274
#
# Disc length: 3430 seconds
#
# Revision: 0
# Processed by: cddbd v1.5PL3 Copyright (c) Steve Scherf et al.
# Submitted via: CDex 1.51
#
DISCID=a00d640c
DTITLE=BUCK-TICK - SEXY STREAM LINER
DYEAR=1900
DGENRE=JPop
TTITLE0=タナトス
TTITLE1=SEXY STREAM LINER
TTITLE2=ヒロイン -angel dust mix-
TTITLE3=無知の涙
TTITLE4=リザードスキンの少女
TTITLE5=螺旋虫
TTITLE6=蝶蝶
TTITLE7=囁き
TTITLE8=迦陵頻伽 Kalavinka
TTITLE9=MY FUCKIN' VALENTINE
TTITLE10=Schiz・o幻想
TTITLE11=キミガシン…ダラ
EXTD=
EXTT0=
EXTT1=
EXTT2=
EXTT3=
EXTT4=
EXTT5=
EXTT6=
EXTT7=
EXTT8=
EXTT9=
EXTT10=
EXTT11=
PLAYORDER=
